<svg xmlns="http://www.w3.org/2000/svg" xmlns:xlink="http://www.w3.org/1999/xlink" width="46" height="46" viewBox="0 0 46 46">
  <defs>
    <clipPath id="clip-Artboard_4">
      <rect width="46" height="46"/>
    </clipPath>
  </defs>
  <g id="Artboard_4" data-name="Artboard – 4" clip-path="url(#clip-Artboard_4)">
    <path id="Icon_awesome-twitter" data-name="Icon awesome-twitter" d="M3.7,21.952c-.023-.32-.023-.64-.023-.959C3.678,11.239,11.1,0,24.67,0A20.85,20.85,0,0,1,36,3.312a15.263,15.263,0,0,0-1.782-.091,14.776,14.776,0,0,0-9.16,3.152,7.391,7.391,0,0,1,6.9,5.117,9.3,9.3,0,0,0-1.393-.114,7.8,7.8,0,0,0-1.942.251,7.379,7.379,0,0,1,5.916,7.241v.091a7.43,7.43,0,0,0-3.335-.937,7.389,7.389,0,0,1,2.284,9.868A20.972,20.972,0,0,0,18.274,20.17a8.329,8.329,0,0,1,.183,1.69A7.385,7.385,0,0,1,5.688,26.909a14.526,14.526,0,0,0-4.683,1.782,7.358,7.358,0,0,1,3.244-4.066A14.791,14.791,0,0,0,0,25.767,15.86,15.86,0,0,1,3.7,21.952Z" transform="translate(41 37.239) rotate(180)"/>
  </g>
</svg>
