<svg xmlns="http://www.w3.org/2000/svg" xmlns:xlink="http://www.w3.org/1999/xlink" width="46" height="46" viewBox="0 0 46 46">
  <defs>
    <clipPath id="clip-Artboard_3">
      <rect width="46" height="46"/>
    </clipPath>
  </defs>
  <g id="Artboard_3" data-name="Artboard – 3" clip-path="url(#clip-Artboard_3)">
    <path id="Icon_awesome-instagram" data-name="Icon awesome-instagram" d="M15.755,23.834a8.079,8.079,0,1,0-8.079-8.079A8.066,8.066,0,0,0,15.755,23.834Zm0-13.331A5.252,5.252,0,1,1,10.5,15.755,5.262,5.262,0,0,1,15.755,10.5ZM5.462,24.165a1.884,1.884,0,1,1,1.884,1.884A1.88,1.88,0,0,1,5.462,24.165ZM.111,22.252a9.325,9.325,0,0,0,2.545,6.6,9.387,9.387,0,0,0,6.6,2.545c2.6.148,10.4.148,13,0a9.373,9.373,0,0,0,6.6-2.538,9.356,9.356,0,0,0,2.545-6.6c.148-2.6.148-10.4,0-13a9.325,9.325,0,0,0-2.545-6.6,9.4,9.4,0,0,0-6.6-2.545c-2.6-.148-10.4-.148-13,0a9.325,9.325,0,0,0-6.6,2.545,9.387,9.387,0,0,0-2.545,6.6c-.148,2.6-.148,10.392,0,12.994ZM3.472,6.467a5.318,5.318,0,0,1,3-3c2.074-.823,7-.633,9.288-.633s7.221-.183,9.288.633a5.318,5.318,0,0,1,3,3c.823,2.074.633,7,.633,9.288s.183,7.221-.633,9.288a5.318,5.318,0,0,1-3,3c-2.074.823-7,.633-9.288.633s-7.221.183-9.288-.633a5.318,5.318,0,0,1-3-3c-.823-2.074-.633-7-.633-9.288S2.649,8.534,3.472,6.467Z" transform="translate(38.518 38.511) rotate(180)"/>
  </g>
</svg>
